<svg
id="final_svg"
viewBox="476.27301025390625 553.968017578125 149.9527587890625 75.701171875"
xmlns="http://www.w3.org/2000/svg"
xmlns:xlink="http://www.w3.org/1999/xlink"
xml:space="preserve"
>
<g
  id="png_group"
  transform="translate(476.273, 553.968) scale(0.24032111899133174)"
  opacity="1"
>
  <g height="75.70115248226949" width="60.9935" transform="rotate(0)">
    <style type="text/css">.st0{fill:url(#SVGID_1_);}	.st1{opacity:0.79;fill:url(#SVGID_2_);enable-background:new    ;}	.st2{opacity:0.79;fill:url(#SVGID_3_);enable-background:new    ;}	.st3{opacity:0.79;fill:url(#SVGID_4_);enable-background:new    ;}</style>
    <g id="color_index_g">
      <linearGradient
        id="SVGID_1_"
        gradientUnits="userSpaceOnUse"
        x1="201.818"
        y1="-84.9671"
        x2="48.0991"
        y2="312.14"
        gradientTransform="matrix(1 0 0 -1 0 316)"
      >
        <stop
          offset="0"
          style="stop-color:rgba(255, 66, 66, 0.77)"
        ></stop>
        <stop offset="1" style="stop-color:rgba(230, 64, 102, 1)"></stop>
      </linearGradient>
      <path
        class="st0"
        d="M17.577,168.484c0,3.02-2.429,5.449-5.449,5.449c-3.005,0-5.449-2.429-5.449-5.449		c0-3.005,2.444-5.449,5.449-5.449C15.148,163.035,17.577,165.479,17.577,168.484z M118.306,64.719c0,3.005,2.445,5.449,5.449,5.449		c3.021,0,5.449-2.444,5.449-5.449c0-3.005-2.428-5.449-5.449-5.449C120.75,59.27,118.306,61.714,118.306,64.719z M249.985,209.959		c-4.623,9.139-13.031,15.055-20.005,19.305c-14.23,8.391-46.8,15.818-102.94,20.691c-22.497,2.179-39.404,9.014-50.739,20.504		c-14.354,12.735-24.458,26.109-32.85,44.23c1.355-6.337,13.28-54.552,67.039-75.29V32.585c0-7.738,2.817-14.354,8.468-19.866		c5.652-5.511,12.346-8.267,20.099-8.267h5.356L144.851,0H9.154v4.453h5.807c7.738,0,14.355,2.755,19.866,8.267		c5.495,5.511,8.407,12.128,8.703,19.866L43.452,145.38c-0.171-0.436-0.327-0.84-0.513-1.277C31.869,107.361,0,109.587,0,109.587		c7.254,9.949,4.842,12.704,11.194,24.489c6.165,11.412,15.756,13.078,22.31,13.031c-1.37-2.195-11.832-19.072-13.949-21.64		c3.035,1.339,5.807,3.285,8.22,5.542c2.414,2.304,4.577,4.842,6.398,7.598c1.573,2.382,3.021,4.92,4.297,7.457		c2.943,7.115,4.313,13.747,4.966,18.293L43.312,315c0,0,25.05-29.331,55.471-35.013c40.245-7.489,51.205-3.301,61.823-3.099		c0,0-68.906,7.893-89.612,34.282c1.79-0.031,58.398,2.522,87.184,0.483c18.448-1.292,31.714-7.317,43.997-18.215		c12.299-10.898,25.439-26.124,35.169-46.768l16.457-34.92L249.985,209.959z"
      ></path>
    </g>
    <g>
      <linearGradient
        id="SVGID_2_"
        gradientUnits="userSpaceOnUse"
        x1="39.1085"
        y1="53.8084"
        x2="36.5128"
        y2="378.9177"
        gradientTransform="matrix(1 0 0 -1 0 316)"
      >
        <stop
          offset="0.4442"
          style="stop-color:#000000;stop-opacity:0"
        ></stop>
        <stop
          offset="0.9429"
          style="stop-color:#000000;stop-opacity:0.4"
        ></stop>
      </linearGradient>
      <linearGradient
        id="SVGID_3_"
        gradientUnits="userSpaceOnUse"
        x1="356.6886"
        y1="101.2258"
        x2="-1.9777"
        y2="-9.1331"
        gradientTransform="matrix(1 0 0 -1 0 316)"
      >
        <stop
          offset="0.4442"
          style="stop-color:#000000;stop-opacity:0"
        ></stop>
        <stop
          offset="0.9429"
          style="stop-color:#000000;stop-opacity:0.4"
        ></stop>
      </linearGradient>
      <linearGradient
        id="SVGID_4_"
        gradientUnits="userSpaceOnUse"
        x1="1.3973"
        y1="-3.4667"
        x2="301.3985"
        y2="109.2004"
        gradientTransform="matrix(1 0 0 -1 0 316)"
      >
        <stop
          offset="0.4442"
          style="stop-color:#000000;stop-opacity:0"
        ></stop>
        <stop
          offset="0.9429"
          style="stop-color:#000000;stop-opacity:0.4"
        ></stop>
      </linearGradient>
      <path
        class="st1"
        d="M40.789,0H9.154v4.453h5.807c7.738,0,14.355,2.755,19.866,8.267c5.495,5.511,8.407,12.128,8.703,19.866		L43.452,145.38c-0.171-0.42-0.327-0.84-0.513-1.277C31.869,107.361,0,109.587,0,109.587c7.254,9.949,4.842,12.704,11.194,24.489		c6.165,11.412,15.756,13.093,22.31,13.047c-1.37-2.195-11.832-19.072-13.949-21.641c3.035,1.323,5.807,3.27,8.22,5.543		c2.414,2.289,4.577,4.826,6.398,7.582c1.573,2.382,3.021,4.92,4.297,7.473c2.943,7.099,4.313,13.732,4.966,18.278l-0.125,150.618		l0.14-0.287c0.871-4.032,7.598-31.791,31.542-53.4l0.078-96.93l0.015-18.978l0.078-112.795C75.165,0,40.789,0,40.789,0z"
      ></path>
      <path
        class="st2"
        d="M249.985,209.959c-4.623,9.139-13.031,15.055-20.005,19.305c-14.23,8.391-46.8,15.818-102.94,20.691		c-22.497,2.179-39.404,9.014-50.739,20.504c-14.354,12.735-24.458,26.109-32.85,44.23c-0.065,0.075-0.124,0.249-0.14,0.311		c0,0,25.05-29.331,55.471-35.013c40.245-7.489,51.205-3.301,61.823-3.099c0,0-68.906,7.893-89.612,34.282		c1.79-0.031,58.398,2.522,87.184,0.483c18.448-1.292,31.714-7.317,43.997-18.215c12.299-10.898,25.439-26.124,35.169-46.768		l16.457-34.92L249.985,209.959z"
      ></path>
      <path
        class="st3"
        d="M253.8,211.749l-16.457,34.92c-1.946,4.141-4.032,8.064-6.227,11.77c-0.794,0.514-1.572,0.996-2.335,1.463		c-10.991,6.476-32.912,12.377-68.175,16.985h-0.046c-10.602-0.218-21.594-4.374-61.777,3.099C68.361,285.669,43.312,315,43.312,315		c0.016-0.062,0.078-0.233,0.14-0.311c8.392-18.122,18.496-31.495,32.85-44.23c11.334-11.489,28.242-18.324,50.739-20.504		c56.14-4.873,88.71-12.299,102.94-20.691c6.974-4.25,15.382-10.166,20.005-19.305L253.8,211.749z"
      ></path>
    </g>
  </g>
</g>
<g id="tagline_group" transform="rotate(0)" opacity="1">
  <g
    id="text_layer_2_0"
    fill="rgba(0, 0, 0, 1)"
    transform="translate(508.8169, 560.313223)"
  >
    <path
      xmlns="http://www.w3.org/2000/svg"
      d="M5.07 16.31C4.27 17.24 3.54 17.84 2.85 18.12C2.48 18.28 2.15 18.32 1.88 18.24C1.68 18.17 1.54 18.03 1.44 17.82C1.32 17.61 1.30 17.37 1.38 17.10C1.45 16.84 1.60 16.61 1.83 16.43C2.10 16.19 2.48 16.04 2.95 15.99C3.52 15.93 4.18 16.01 4.93 16.24C4.97 16.25 5.02 16.28 5.07 16.31ZM14.21 1.41C14.33 1.37 14.41 1.29 14.45 1.18C14.49 1.08 14.48 0.97 14.43 0.85C14.39 0.74 14.30 0.66 14.19 0.62C14.08 0.58 13.96 0.59 13.85 0.63C13.38 0.86 12.82 1.51 12.17 2.58C11.68 3.40 11.09 4.53 10.41 6.00C10.17 6.52 9.89 7.11 9.58 7.78C9.53 7.91 9.26 8.53 8.77 9.64C8.27 10.76 7.96 11.44 7.85 11.70C7.27 12.99 6.83 13.84 6.56 14.26C6.27 14.75 5.97 15.19 5.66 15.58L5.17 15.43C3.48 14.91 2.18 15.03 1.27 15.77C0.91 16.08 0.67 16.47 0.56 16.92C0.45 17.38 0.48 17.81 0.66 18.21C0.87 18.64 1.19 18.91 1.63 19.04C2.09 19.19 2.60 19.15 3.17 18.92C4.05 18.56 4.97 17.79 5.95 16.60C6.10 16.65 6.25 16.70 6.41 16.75C6.98 16.98 7.75 17.30 8.73 17.73C9.61 18.12 10.26 18.38 10.70 18.53C11.68 18.85 12.65 19.00 13.60 18.97C14.71 18.94 16.03 18.67 17.55 18.16C17.67 18.12 17.75 18.04 17.81 17.93C17.87 17.83 17.88 17.72 17.83 17.62C17.79 17.51 17.72 17.43 17.62 17.37C17.51 17.31 17.40 17.30 17.29 17.34C15.84 17.82 14.60 18.08 13.58 18.12C12.72 18.15 11.85 18.02 10.97 17.73C10.55 17.58 9.92 17.32 9.07 16.95C8.08 16.51 7.29 16.18 6.70 15.97L6.51 15.87C6.77 15.53 7.03 15.15 7.29 14.73C7.58 14.27 8.03 13.38 8.63 12.04C8.74 11.78 9.05 11.10 9.55 9.98C10.04 8.87 10.31 8.26 10.36 8.14C10.67 7.46 10.95 6.87 11.19 6.36C11.86 4.93 12.43 3.82 12.90 3.02C13.45 2.10 13.89 1.56 14.21 1.41ZM19.29 13.78C19.19 13.92 19.07 14.05 18.94 14.17C18.70 14.39 18.43 14.54 18.14 14.59C17.85 14.65 17.61 14.61 17.43 14.48C17.29 14.40 17.21 14.27 17.19 14.09C17.17 13.85 17.29 13.56 17.53 13.24C17.66 13.08 17.85 12.92 18.09 12.78C18.11 12.76 18.16 12.73 18.24 12.68C18.30 12.84 18.39 13.00 18.51 13.14C18.68 13.39 18.94 13.60 19.29 13.78ZM19.72 13.04C19.48 12.91 19.30 12.77 19.19 12.61C19.03 12.41 18.98 12.22 19.07 12.04C19.15 11.87 19.27 11.77 19.43 11.75C19.59 11.72 19.74 11.80 19.87 12.00C20.00 12.21 20.01 12.45 19.90 12.73C19.83 12.84 19.77 12.95 19.72 13.04ZM18.26 11.75C18.18 11.75 18.10 11.77 18.02 11.80C18.02 11.82 17.99 11.84 17.93 11.87L17.76 11.97C17.70 12.00 17.67 12.03 17.65 12.04C17.31 12.24 17.04 12.47 16.85 12.73C16.47 13.23 16.30 13.71 16.34 14.17C16.37 14.62 16.59 14.97 16.99 15.21C17.35 15.44 17.77 15.51 18.24 15.43C18.71 15.35 19.14 15.14 19.53 14.80C19.74 14.60 19.93 14.38 20.09 14.12L20.43 14.21C21.78 14.59 23.42 14.66 25.36 14.43C26.95 14.24 28.53 13.88 30.11 13.36C30.22 13.31 30.31 13.24 30.37 13.13C30.42 13.02 30.43 12.92 30.39 12.81C30.35 12.71 30.28 12.63 30.17 12.57C30.07 12.51 29.96 12.50 29.84 12.53C28.31 13.05 26.79 13.40 25.26 13.58C23.44 13.79 21.90 13.73 20.65 13.41C20.62 13.39 20.58 13.38 20.53 13.36L20.68 13.07C20.90 12.53 20.87 12.03 20.58 11.56C20.27 11.04 19.85 10.82 19.31 10.90C18.84 10.98 18.50 11.25 18.29 11.70C18.29 11.72 18.28 11.74 18.26 11.75ZM30.57 11.34C30.69 11.06 30.83 10.78 31.01 10.48C31.47 9.67 31.97 8.96 32.51 8.35C33.06 7.74 33.60 7.31 34.13 7.07C34.48 6.91 34.71 6.84 34.84 6.88C34.95 6.89 35.04 6.92 35.08 6.97L35.13 7.00L35.13 7.12C35.12 7.20 35.08 7.29 35.01 7.39C34.77 7.84 34.22 8.44 33.38 9.17C32.70 9.77 31.92 10.39 31.04 11.02C30.87 11.13 30.72 11.24 30.57 11.34ZM30.11 12.63C30.45 12.43 30.92 12.13 31.53 11.70C32.44 11.07 33.24 10.44 33.94 9.83C34.87 9.01 35.47 8.34 35.77 7.80C35.98 7.40 36.04 7.04 35.94 6.73C35.82 6.39 35.52 6.16 35.04 6.05C34.82 6.00 34.58 6.01 34.30 6.07C34.17 6.12 34.00 6.19 33.77 6.29C33.09 6.60 32.40 7.15 31.72 7.95C31.18 8.57 30.70 9.27 30.26 10.07C29.15 12.04 28.92 13.47 29.55 14.39C29.84 14.81 30.31 15.10 30.94 15.26C31.46 15.39 32.10 15.43 32.87 15.38C34.05 15.30 35.52 14.99 37.25 14.46C38.43 14.12 39.59 13.71 40.74 13.24C40.86 13.19 40.94 13.11 40.99 13.01C41.03 12.90 41.03 12.80 40.99 12.69C40.94 12.58 40.86 12.51 40.75 12.46C40.65 12.41 40.54 12.41 40.42 12.46C39.30 12.91 38.17 13.31 37.01 13.65C35.34 14.16 33.93 14.45 32.79 14.53C31.46 14.61 30.61 14.40 30.26 13.90C30.06 13.62 30.01 13.24 30.09 12.75C30.10 12.72 30.11 12.68 30.11 12.63ZM40.86 11.95C40.91 11.85 40.92 11.74 40.89 11.63C40.86 11.52 40.79 11.43 40.68 11.37C40.57 11.32 40.46 11.31 40.35 11.35C40.24 11.39 40.16 11.46 40.11 11.56C39.67 12.35 39.46 13.04 39.47 13.60C39.47 14.21 39.70 14.67 40.16 14.99C40.84 15.47 42.01 15.58 43.67 15.34C44.89 15.16 46.32 14.81 47.96 14.29C49.13 13.90 50.14 13.52 51.01 13.17C51.10 13.12 51.18 13.04 51.23 12.93C51.27 12.83 51.27 12.72 51.23 12.61C51.18 12.49 51.10 12.41 50.98 12.37C50.87 12.33 50.76 12.34 50.66 12.39C49.84 12.74 48.84 13.10 47.69 13.46C46.10 13.98 44.72 14.33 43.55 14.51C42.11 14.72 41.16 14.65 40.67 14.29C40.44 14.14 40.33 13.91 40.33 13.60C40.33 13.18 40.51 12.63 40.86 11.95ZM41.79 9.61C41.68 9.61 41.57 9.65 41.48 9.73C41.40 9.81 41.35 9.91 41.35 10.02C41.35 10.13 41.40 10.24 41.48 10.33C41.57 10.41 41.68 10.46 41.79 10.46C41.90 10.46 42.00 10.41 42.08 10.33C42.16 10.24 42.20 10.13 42.20 10.02C42.20 9.91 42.16 9.81 42.08 9.73C42.00 9.65 41.90 9.61 41.79 9.61ZM50.15 12.36C50.04 12.39 49.96 12.47 49.92 12.58C49.88 12.69 49.88 12.80 49.93 12.91C49.98 13.02 50.06 13.09 50.16 13.14C50.27 13.19 50.38 13.19 50.49 13.14C51.68 12.64 52.71 12.00 53.59 11.24C53.57 11.32 53.55 11.42 53.52 11.53C53.24 12.67 53.22 13.60 53.47 14.31C53.71 14.99 54.19 15.47 54.91 15.73C55.96 16.08 57.54 15.94 59.64 15.29C60.32 15.08 61.08 14.81 61.90 14.48C62.36 14.30 62.91 14.07 63.56 13.78L63.61 13.75C63.66 13.73 63.71 13.71 63.77 13.69C63.83 13.67 63.89 13.64 63.95 13.62C64.02 13.59 64.07 13.57 64.12 13.54L64.24 13.48C64.47 13.39 64.66 13.31 64.81 13.26C64.90 13.21 64.98 13.14 65.03 13.03C65.07 12.93 65.08 12.82 65.04 12.71C65.00 12.61 64.92 12.53 64.81 12.48C64.69 12.43 64.59 12.43 64.49 12.48C64.34 12.53 64.15 12.61 63.90 12.70C63.89 12.72 63.86 12.74 63.82 12.75C63.78 12.77 63.73 12.79 63.68 12.81C63.64 12.84 63.58 12.86 63.53 12.87C63.47 12.89 63.42 12.91 63.38 12.93C63.34 12.96 63.30 12.97 63.27 12.97L63.22 13.00C62.57 13.27 62.03 13.50 61.59 13.68C60.77 14.00 60.04 14.26 59.39 14.46C57.48 15.06 56.08 15.21 55.20 14.92C54.73 14.76 54.42 14.46 54.27 14.02C54.08 13.48 54.10 12.72 54.35 11.73C54.49 11.14 54.64 10.70 54.79 10.39C54.90 10.11 55.07 9.79 55.30 9.44L55.32 9.44L55.35 9.44C56.13 9.55 56.69 9.62 57.03 9.66C57.14 9.67 57.25 9.64 57.35 9.56C57.44 9.48 57.50 9.38 57.50 9.26C57.51 9.15 57.48 9.05 57.41 8.96C57.33 8.87 57.24 8.82 57.13 8.80C56.82 8.77 56.37 8.71 55.78 8.63C55.80 8.60 55.81 8.56 55.81 8.51C55.81 8.36 55.74 8.24 55.61 8.14C55.53 8.11 55.45 8.09 55.37 8.09C55.22 8.09 55.11 8.15 55.03 8.27C54.96 8.35 54.91 8.43 54.86 8.51C54.24 8.43 53.77 8.37 53.44 8.34C53.31 8.32 53.20 8.35 53.11 8.44C53.03 8.52 52.98 8.61 52.97 8.73C52.96 8.84 52.99 8.94 53.07 9.03C53.14 9.12 53.24 9.18 53.37 9.19C53.61 9.21 53.92 9.24 54.30 9.29C53.96 9.71 53.59 10.10 53.20 10.46C52.35 11.22 51.34 11.86 50.15 12.36ZM64.15 14.36L64.15 14.09C64.18 13.83 64.26 13.54 64.39 13.21C64.73 12.45 65.14 11.98 65.61 11.80C65.81 11.72 65.99 11.73 66.17 11.82C66.37 11.92 66.55 12.11 66.73 12.39L66.71 12.41C66.53 12.62 66.25 12.90 65.88 13.24C65.86 13.26 65.84 13.28 65.81 13.30C65.77 13.32 65.76 13.34 65.76 13.36C65.72 13.38 65.70 13.39 65.68 13.41C65.18 13.90 64.77 14.21 64.44 14.34C64.33 14.39 64.24 14.41 64.17 14.41C64.17 14.39 64.16 14.38 64.15 14.36ZM68.07 12.22C68.11 12.10 68.09 12.00 68.02 11.90C67.96 11.80 67.87 11.74 67.76 11.70C67.61 11.67 67.48 11.70 67.37 11.80C67.12 11.48 66.86 11.23 66.59 11.07C66.16 10.86 65.73 10.83 65.29 11.00C64.61 11.27 64.05 11.90 63.61 12.87C63.43 13.28 63.33 13.66 63.29 14.02C63.26 14.47 63.36 14.82 63.59 15.04C63.88 15.32 64.28 15.35 64.78 15.14C65.19 14.95 65.68 14.58 66.27 14.04L66.32 13.99L66.39 13.92L66.44 13.87C66.73 13.60 66.95 13.39 67.10 13.24C67.13 14.13 67.47 14.77 68.12 15.14C68.84 15.55 69.91 15.60 71.34 15.31C72.38 15.10 73.61 14.70 75.02 14.12C75.92 13.74 76.85 13.31 77.83 12.82C77.94 12.78 78.01 12.69 78.04 12.58C78.08 12.47 78.07 12.36 78.02 12.25C77.97 12.15 77.89 12.08 77.78 12.04C77.66 12.01 77.56 12.02 77.46 12.07C76.48 12.54 75.57 12.96 74.70 13.34C73.34 13.89 72.16 14.27 71.17 14.48C69.95 14.73 69.07 14.69 68.54 14.39C68.28 14.24 68.11 14.02 68.02 13.73C67.91 13.34 67.93 12.83 68.07 12.22ZM80.70 18.02L80.70 3.39L85.55 Z"
    />
  </g>
  <g
    id="text_layer_2_1"
    fill="rgba(0, 0, 0, 1)"
    transform="translate(508.8169, 583.963181)"
  >
    <path d="M9.00 15.14C7.53 16.54 6.08 17.47 4.63 17.94C4.47 17.99 4.32 18.01 4.17 17.99C4.10 17.99 4.06 17.99 4.02 17.97C3.96 17.76 4.04 17.53 4.27 17.29C4.54 16.99 5.01 16.69 5.68 16.36C6.51 15.95 7.62 15.55 9.00 15.14ZM0.27 18.19C0.22 18.30 0.22 18.42 0.27 18.53C0.32 18.64 0.39 18.72 0.50 18.76C0.61 18.80 0.71 18.80 0.82 18.76C0.92 18.72 1.00 18.64 1.05 18.53C3.37 13.13 5.71 8.53 8.05 4.73C8.09 4.63 8.11 4.52 8.08 4.40C8.06 4.28 8.00 4.19 7.90 4.13C7.80 4.08 7.70 4.06 7.58 4.08C7.47 4.11 7.38 4.17 7.31 4.27C4.96 8.12 2.61 12.76 0.27 18.19ZM1.05 6.83C1.02 6.94 1.02 7.05 1.07 7.16C1.12 7.26 1.20 7.33 1.32 7.38C1.43 7.42 1.54 7.41 1.65 7.36C1.75 7.31 1.82 7.23 1.85 7.12C2.21 6.11 2.97 5.11 4.13 4.12C5.29 3.13 6.53 2.42 7.85 2.00C9.25 1.54 10.42 1.51 11.36 1.90C12.40 2.36 13.05 3.33 13.31 4.83C13.60 6.44 13.51 7.92 13.02 9.26C12.45 10.83 11.49 12.39 10.14 13.95C8.05 14.50 6.43 15.05 5.29 15.60C4.54 15.96 4.00 16.33 3.66 16.70C3.19 17.19 3.03 17.70 3.19 18.24C3.32 18.61 3.62 18.81 4.10 18.85C4.36 18.88 4.62 18.85 4.90 18.75C6.74 18.15 8.54 16.90 10.31 15.02C10.41 14.92 10.51 14.82 10.61 14.70C10.62 14.70 10.63 14.69 10.63 14.68C11.75 14.40 13.13 14.08 14.78 13.73L15.12 13.65C15.36 13.59 15.60 13.53 15.85 13.48C16.09 13.43 16.26 13.40 16.36 13.39C16.85 13.27 17.19 13.19 17.38 13.14C17.50 13.11 17.58 13.04 17.64 12.93C17.70 12.83 17.71 12.72 17.68 12.61C17.64 12.49 17.57 12.41 17.47 12.35C17.36 12.29 17.25 12.28 17.14 12.31C16.96 12.36 16.64 12.43 16.16 12.53C16.08 12.56 15.92 12.61 15.68 12.65C15.43 12.70 15.19 12.75 14.96 12.80C14.72 12.85 14.60 12.88 14.58 12.90C13.38 13.16 12.36 13.39 11.53 13.58C12.57 12.22 13.34 10.87 13.82 9.56C14.36 8.06 14.47 6.44 14.17 4.68C13.84 2.88 13.01 1.69 11.68 1.12C10.54 0.63 9.18 0.65 7.58 1.17C6.14 1.64 4.79 2.42 3.54 3.50C2.28 4.58 1.45 5.69 1.05 6.83ZM16.77 14.36L16.77 14.09C16.81 13.83 16.89 13.54 17.02 13.21C17.36 12.45 17.77 11.98 18.24 11.80C18.43 11.72 18.62 11.73 18.80 11.82C18.99 11.92 19.18 12.11 19.36 12.39L19.33 12.41C19.16 12.62 18.88 12.90 18.51 13.24C18.49 13.26 18.46 13.28 18.43 13.30C18.40 13.32 18.38 13.34 18.38 13.36C18.35 13.38 18.33 13.39 18.31 13.41C17.81 13.90 17.39 14.21 17.07 14.34C16.95 14.39 16.86 14.41 16.80 14.41C16.80 14.39 16.79 14.38 16.77 14.36ZM20.70 12.22C20.73 12.10 20.72 12.00 20.65 11.90C20.59 11.80 20.50 11.74 20.38 11.70C20.24 11.67 20.11 11.70 19.99 11.80C19.75 11.48 19.49 11.23 19.21 11.07C18.79 10.86 18.36 10.83 17.92 11.00C17.24 11.27 16.68 11.90 16.24 12.87C16.06 13.28 15.95 13.66 15.92 14.02C15.89 14.47 15.99 14.82 16.21 15.04C16.51 15.32 16.90 15.35 17.41 15.14C17.81 14.95 18.31 14.58 18.90 14.04L18.94 13.99L19.02 13.92L19.07 13.87C19.36 13.60 19.58 13.39 19.72 13.24C19.76 14.13 20.10 14.77 20.75 15.14C21.46 15.55 22.54 15.60 23.97 15.31C25.01 15.10 26.23 14.70 27.65 14.12C28.54 13.74 29.48 13.31 30.45 12.82C30.57 12.78 30.64 12.69 30.67 12.58C30.70 12.47 30.70 12.36 30.65 12.25C30.60 12.15 30.52 12.08 30.40 12.04C30.29 12.01 30.18 12.02 30.09 12.07C29.11 12.54 28.19 12.96 27.33 13.34C25.97 13.89 24.79 14.27 23.80 14.48C22.58 14.73 21.70 14.69 21.16 14.39C20.90 14.24 20.73 14.02 20.65 13.73C20.54 13.34 20.55 12.83 20.70 12.22ZM33.16 13.39C33.11 13.21 33.08 13.08 33.06 13.00C33.00 12.83 32.92 12.69 32.84 12.58C32.61 12.26 32.27 12.13 31.82 12.19C31.30 12.27 30.70 12.57 30.01 13.09C30.01 13.11 30.01 13.12 29.99 13.12L29.99 13.09C30.01 13.04 30.03 12.99 30.06 12.92C30.06 12.91 30.07 12.87 30.09 12.82L30.11 12.75C30.22 12.43 30.31 12.17 30.35 12.00L30.38 11.97L30.38 11.95L30.38 11.92L30.38 11.90L30.38 11.87L30.38 11.85L30.38 11.82L30.38 11.80L30.38 11.78L30.38 11.75L30.38 11.73C30.33 11.60 30.24 11.51 30.11 11.46C30.00 11.41 29.89 11.41 29.78 11.47C29.68 11.53 29.60 11.61 29.55 11.70C29.49 11.90 29.40 12.16 29.31 12.48L29.28 12.56C29.27 12.61 29.25 12.64 29.23 12.65C29.22 12.72 29.20 12.78 29.18 12.82C28.96 13.52 28.75 14.06 28.58 14.43C28.51 14.56 28.50 14.69 28.55 14.80C28.58 14.86 28.62 14.92 28.67 14.97C28.77 15.05 28.88 15.09 28.99 15.08C29.10 15.07 29.20 15.03 29.28 14.95C29.64 14.52 30.05 14.13 30.53 13.78C31.09 13.35 31.57 13.11 31.96 13.04C32.05 13.03 32.10 13.03 32.13 13.04L32.16 13.07C32.21 13.13 32.26 13.30 32.33 13.56L32.33 13.65C32.35 13.67 32.35 13.69 32.35 13.73C32.42 14.02 32.50 14.25 32.60 14.41C32.74 14.69 32.96 14.87 33.26 14.97C34.59 15.46 36.42 15.40 38.74 14.80C40.27 14.41 41.84 13.85 43.45 13.12C43.55 13.07 43.61 12.99 43.65 12.87C43.70 12.76 43.69 12.65 43.64 12.54C43.59 12.44 43.52 12.37 43.41 12.32C43.31 12.28 43.20 12.29 43.08 12.34C41.52 13.05 40.00 13.60 38.52 13.97C36.38 14.52 34.72 14.59 33.55 14.17C33.39 14.12 33.26 13.91 33.18 13.53C33.18 13.52 33.17 13.49 33.16 13.46ZM42.76 14.36L42.76 14.09C42.80 13.83 42.88 13.54 43.01 13.21C43.35 12.45 43.76 11.98 44.23 11.80C44.42 11.72 44.61 11.73 44.79 11.82C44.98 11.92 45.17 12.11 45.35 12.39L45.33 12.41C45.15 12.62 44.87 12.90 44.50 13.24C44.48 13.26 44.46 13.28 44.42 13.30C44.39 13.32 44.37 13.34 44.37 13.36C44.34 13.38 44.32 13.39 44.30 13.41C43.80 13.90 43.38 14.21 43.06 14.34C42.94 14.39 42.85 14.41 42.79 14.41C42.79 14.39 42.78 14.38 42.76 14.36ZM46.69 12.22C46.72 12.10 46.71 12.00 46.64 11.90C46.58 11.80 46.49 11.74 46.37 11.70C46.23 11.67 46.10 11.70 45.98 11.80C45.74 11.48 45.48 11.23 45.20 11.07C44.78 10.86 44.35 10.83 43.91 11.00C43.23 11.27 42.67 11.90 42.23 12.87C42.05 13.28 41.94 13.66 41.91 14.02C41.88 14.47 41.98 14.82 42.20 15.04C42.50 15.32 42.90 15.35 43.40 15.14C43.81 14.95 44.30 14.58 44.89 14.04L44.93 13.99L45.01 13.92L45.06 13.87C45.35 13.60 45.57 13.39 45.72 13.24C45.75 14.13 46.09 14.77 46.74 15.14C47.45 15.55 48.53 15.60 49.96 15.31C51.00 15.10 52.22 14.70 53.64 14.12C54.53 13.74 55.47 13.31 56.44 12.82C56.56 12.78 56.63 12.69 56.66 12.58C56.69 12.47 56.69 12.36 56.64 12.25C56.59 12.15 56.51 12.08 56.39 12.04C56.28 12.01 56.17 12.02 56.08 12.07C55.10 12.54 54.18 12.96 53.32 13.34C51.96 13.89 50.78 14.27 49.79 14.48C48.57 14.73 47.69 14.69 47.15 14.39C46.89 14.24 46.72 14.02 46.64 13.73C46.53 13.34 46.54 12.83 46.69 12.22ZM59.15 13.39C59.10 13.21 59.07 13.08 59.05 13.00C58.99 12.83 58.91 12.69 58.83 12.58C58.60 12.26 58.26 12.13 57.81 12.19C57.29 12.27 56.69 12.57 56.00 13.09C56.00 13.11 56.00 13.12 55.98 13.12L55.98 13.09C56.00 13.04 56.02 12.99 56.05 12.92C56.05 12.91 56.06 12.87 56.08 12.82L56.10 12.75C56.22 12.43 56.30 12.17 56.35 12.00L56.37 11.97L56.37 11.95L56.37 11.92L56.37 11.90L56.37 11.87L56.37 11.85L56.37 11.82L56.37 11.80L56.37 11.78L56.37 11.75L56.37 11.73C56.32 11.60 56.23 11.51 56.10 11.46C55.99 11.41 55.88 11.41 55.77 11.47C55.67 11.53 55.59 11.61 55.54 11.70C55.48 11.90 55.39 12.16 55.30 12.48L55.27 12.56C55.26 12.61 55.24 12.64 55.22 12.65C55.21 12.72 55.19 12.78 55.18 12.82C54.95 13.52 54.74 14.06 54.57 14.43C54.50 14.56 54.49 14.69 54.54 14.80C54.57 14.86 54.61 14.92 54.66 14.97C54.76 15.05 54.87 15.09 54.98 15.08C55.09 15.07 55.19 15.03 55.27 14.95C55.63 14.52 56.04 14.13 56.52 13.78C57.08 13.35 57.56 13.11 57.95 13.04C58.04 13.03 58.09 13.03 58.13 13.04L58.15 13.07C58.20 13.13 58.26 13.30 58.32 13.56L58.32 13.65C58.34 13.67 58.34 13.69 58.34 13.73C58.41 14.02 58.49 14.25 58.59 14.41C58.73 14.69 58.95 14.87 59.25 14.97C60.58 15.46 62.41 15.40 64.73 14.80C66.26 14.41 67.83 13.85 69.44 13.12C69.54 13.07 69.60 12.99 69.65 12.87C69.69 12.76 69.68 12.65 69.63 12.54C69.58 12.44 69.51 12.37 69.40 12.32C69.30 12.28 69.19 12.29 69.07 12.34C67.51 13.05 65.99 13.60 64.51 13.97C62.37 14.52 60.71 14.59 59.54 14.17C59.38 14.12 59.25 13.91 59.17 13.53C59.17 13.52 59.17 13.49 59.15 13.46ZM70.97 12.63C70.99 12.74 71.05 12.84 71.14 12.91C71.24 12.98 71.35 13.01 71.46 13.00C71.58 12.98 71.67 12.92 71.74 12.82C71.82 12.73 71.84 12.62 71.83 12.51C71.76 12.07 71.62 11.72 71.40 11.46C71.18 11.20 70.89 11.06 70.54 11.04C69.98 11.00 69.42 11.23 68.85 11.75C68.30 12.27 67.98 12.84 67.90 13.46C67.80 14.25 68.13 14.86 68.88 15.29C69.61 15.71 70.59 15.86 71.83 15.75C72.80 15.67 73.97 15.41 75.31 14.97C76.05 14.74 76.87 14.45 77.80 14.09C78.11 13.96 78.47 13.82 78.87 13.65C78.92 13.64 79.09 13.57 79.36 13.46C79.64 13.34 79.81 13.27 79.87 13.24C80.62 12.95 81.17 12.74 81.51 12.63C81.62 12.60 81.71 12.53 81.76 12.42C81.82 12.32 81.83 12.21 81.79 12.09C81.75 11.98 81.67 11.90 81.57 11.85C81.46 11.80 81.35 11.79 81.24 11.82C80.88 11.94 80.32 12.15 79.56 12.46C79.49 12.49 79.32 12.56 79.04 12.68C78.77 12.79 78.61 12.86 78.56 12.87C78.15 13.04 77.79 13.17 77.48 13.29C76.57 13.65 75.77 13.94 75.07 14.17C72.31 15.04 70.39 15.17 69.32 14.56C68.89 14.31 68.71 13.99 68.76 13.58C68.80 13.16 69.03 12.76 69.44 12.39C69.81 12.03 70.16 11.87 70.49 11.90C70.60 11.90 70.69 11.94 70.75 12.02C70.87 12.15 70.94 12.35 70.97 12.63ZM81.63 10.73L81.73 10.39C82.17 8.70 82.66 7.46 83.21 6.68C83.51 6.26 83.80 5.99 84.10 5.89C84.40 5.78 84.73 5.84 85.07 6.05C85.26 6.16 85.37 6.31 85.38 6.49C85.42 6.68 85.35 6.92 85.19 7.22C84.88 7.82 84.25 8.54 83.29 9.39C82.80 9.83 82.25 10.27 81.63 10.73ZM80.34 12.68C80.30 12.81 80.28 12.94 80.26 13.07C80.17 13.60 80.07 14.21 79.97 14.90C79.95 15.03 79.99 15.14 80.07 15.24C80.10 15.30 80.15 15.36 80.21 15.41C80.30 15.47 80.40 15.50 80.52 15.49C80.64 15.49 80.73 15.43 80.80 15.34C80.82 15.32 80.88 15.24 81.00 15.09C81.11 14.95 81.19 14.85 81.24 14.80C81.45 14.52 81.65 14.28 81.85 14.07C82.21 13.66 82.53 13.34 82.82 13.12C83.21 12.84 83.51 12.73 83.70 12.78C83.77 12.81 83.80 12.85 83.80 12.90C83.83 13.01 83.82 13.21 83.77 13.48C83.77 13.50 83.77 13.52 83.75 13.53C83.70 13.86 83.68 14.10 83.68 14.26C83.71 14.62 83.86 14.88 84.12 15.04C84.65 15.37 85.45 15.50 86.51 15.43C87.35 15.38 88.35 15.21 89.50 14.92C91.16 14.52 92.92 13.94 94.77 13.19C94.88 13.14 94.97 13.06 95.01 12.96C95.06 12.85 95.06 12.75 95.01 12.64C94.97 12.54 94.89 12.46 94.78 12.41C94.68 12.36 94.57 12.36 94.45 12.41C92.63 13.13 90.92 13.69 89.31 14.09C86.90 14.69 85.32 14.77 84.55 14.31C84.54 14.30 84.53 14.26 84.53 14.21C84.53 14.12 84.55 13.94 84.60 13.68L84.60 13.63C84.67 13.24 84.68 12.95 84.65 12.75C84.57 12.35 84.34 12.09 83.95 11.97C83.47 11.82 82.93 11.98 82.31 12.43C81.97 12.69 81.60 13.04 81.21 13.48C81.15 13.56 81.08 13.64 81.02 13.70C81.05 13.56 81.08 13.39 81.12 13.21C81.18 12.79 81.26 12.39 81.34 12.00C82.30 11.33 83.14 10.67 83.87 10.02C84.90 9.11 85.59 8.31 85.94 7.61C86.19 7.17 86.29 6.76 86.24 6.39C86.19 5.95 85.95 5.59 85.53 5.32C84.94 4.96 84.38 4.88 83.82 5.07C83.35 5.25 82.91 5.62 82.51 6.19C81.91 7.05 81.37 8.38 80.90 10.17C80.78 10.59 80.68 11.04 80.58 11.51C79.82 12.03 79.27 12.37 78.95 12.53C78.83 12.60 78.76 12.68 78.73 12.79C78.70 12.89 78.70 13.00 78.75 13.11C78.80 13.21 78.88 13.28 79.00 13.32C79.11 13.37 79.22 13.35 79.34 13.29C79.55 13.19 79.88 12.99 80.34 12.68ZM94.36 12.63C94.42 12.37 94.50 12.15 94.60 11.97C94.73 11.71 94.90 11.53 95.11 11.43C95.49 11.29 95.86 11.38 96.23 11.70C96.38 11.85 96.48 11.99 96.53 12.12C96.54 12.22 96.53 12.30 96.48 12.36C96.38 12.48 96.17 12.56 95.84 12.61C95.45 12.69 94.96 12.69 94.36 12.63ZM94.26 13.48C95.72 13.63 96.68 13.43 97.14 12.90C97.38 12.61 97.45 12.27 97.35 11.90C97.26 11.59 97.07 11.31 96.79 11.07C96.50 10.83 96.18 10.66 95.82 10.58C95.46 10.50 95.11 10.52 94.77 10.65C93.96 11.00 93.50 11.88 93.41 13.31C93.37 13.80 93.52 14.25 93.84 14.65C94.25 15.16 95.02 15.42 96.16 15.43C97.05 15.45 98.14 15.32 99.40 15.04C100.48 14.83 101.54 14.55 102.61 14.19C103.67 13.83 104.47 13.50 104.99 13.19C105.08 13.13 105.14 13.04 105.17 12.92C105.19 12.81 105.18 12.70 105.12 12.61C105.06 12.51 104.98 12.44 104.86 12.41C104.75 12.38 104.64 12.39 104.55 12.46C104.08 12.74 103.33 13.04 102.30 13.39C101.28 13.73 100.26 14.00 99.23 14.21C98.01 14.47 97.00 14.60 96.18 14.58C95.31 14.56 94.75 14.41 94.50 14.12C94.34 13.91 94.26 13.69 94.26 13.48ZM105.74 11.19C105.71 11.09 105.68 11.00 105.64 10.92C105.53 10.52 105.53 10.18 105.64 9.90C105.76 9.66 105.95 9.53 106.23 9.53C106.36 9.53 106.47 9.57 106.57 9.63C106.64 9.66 106.67 9.70 106.67 9.75C106.60 10.19 106.29 10.67 105.74 11.19ZM107.91 12.73C107.99 12.63 108.02 12.52 108.00 12.41C107.97 12.30 107.92 12.20 107.84 12.12C107.71 12.04 107.57 12.02 107.42 12.07C107.39 12.07 107.35 12.08 107.30 12.09C106.93 12.21 106.59 12.14 106.28 11.90C106.26 11.90 106.25 11.89 106.25 11.87C107.00 11.19 107.42 10.52 107.50 9.85C107.55 9.48 107.40 9.17 107.06 8.92C106.81 8.76 106.54 8.68 106.23 8.68C105.56 8.68 105.11 8.97 104.86 9.56C104.67 10.03 104.65 10.57 104.82 11.17C104.88 11.36 104.96 11.56 105.06 11.75C104.60 12.09 104.08 12.41 103.50 12.70C103.39 12.77 103.31 12.86 103.28 12.97C103.25 13.08 103.26 13.19 103.32 13.30C103.37 13.41 103.45 13.47 103.56 13.51C103.67 13.54 103.78 13.53 103.89 13.48C104.51 13.16 105.07 12.81 105.57 12.43L105.77 12.58C106.06 12.81 106.38 12.94 106.74 12.97C106.45 13.49 106.32 13.94 106.35 14.31C106.42 14.91 106.81 15.30 107.52 15.46C108.43 15.65 109.95 15.47 112.08 14.92C112.67 14.76 113.29 14.57 113.96 14.36C114.59 14.17 115.25 13.95 115.93 13.70C116.29 13.57 116.69 13.43 117.13 13.26C117.24 13.23 117.32 13.16 117.37 13.06C117.42 12.95 117.42 12.84 117.38 12.73C117.34 12.61 117.27 12.53 117.16 12.48C117.06 12.43 116.95 12.43 116.84 12.46C116.40 12.64 116.01 12.78 115.67 12.90C114.98 13.14 114.32 13.36 113.69 13.56C113.04 13.77 112.43 13.95 111.86 14.09C109.86 14.61 108.47 14.79 107.69 14.63C107.38 14.56 107.22 14.43 107.21 14.24C107.17 13.91 107.41 13.41 107.91 12.73Z"></path>
  </g>
</g>
</svg>